<svg id="Group_160" data-name="Group 160" xmlns="http://www.w3.org/2000/svg" xmlns:xlink="http://www.w3.org/1999/xlink" width="171.834" height="58.918" viewBox="0 0 171.834 58.918">
  <defs>
    <clipPath id="clip-path">
      <rect id="Rectangle_49" data-name="Rectangle 49" width="171.834" height="58.918" fill="none"/>
    </clipPath>
  </defs>
  <g id="Group_159" data-name="Group 159" clip-path="url(#clip-path)">
    <path id="Path_2625" data-name="Path 2625" d="M35.75,13.835A3.464,3.464,0,0,1,32.3,17.22H27.625a3.529,3.529,0,0,1-3.438-3.189l-.011-.257V9a1.187,1.187,0,0,0-1.153-1.08H18.345A1.188,1.188,0,0,0,17.189,9.1v3.919A1.144,1.144,0,0,1,16.116,14.1H15.99A1.138,1.138,0,0,1,14.9,12.963V9.1a3.507,3.507,0,0,1,3.446-3.476h4.678a3.468,3.468,0,0,1,3.406,2.889l.035.164.006.3V13.76a1.189,1.189,0,0,0,1.155,1.17H32.3a1.173,1.173,0,0,0,1.156-1.1V6.6l.061-.2a1.138,1.138,0,0,1,.963-.789h.213A1.169,1.169,0,0,1,35.75,6.663ZM34.673,26.469l-7.112,0A1.193,1.193,0,0,0,26.47,27.6v4.661a.721.721,0,0,1,.006.119v.053a3.369,3.369,0,0,1-3.287,3.321l-.084,0-.079,0h-4.71a3.353,3.353,0,0,1-3.417-3.28v-.6a.17.17,0,0,1-.006-.05,1.15,1.15,0,0,1,1.033-1.141h.225a1.159,1.159,0,0,1,1.041,1.045v.163l0,.383a1.2,1.2,0,0,0,1.127,1.185h4.736a1.126,1.126,0,0,0,1.124-1.043l.011-5.057a3.485,3.485,0,0,1,3.374-3.178l7.127,0a1.163,1.163,0,0,1,1.056,1.045v.166a1.157,1.157,0,0,1-1.071,1.08m.079,9.28-.251,0-5.877,0A1.125,1.125,0,0,1,27.6,34.6a1.14,1.14,0,0,1,.969-1.143l.026,0,.082,0h.055l6.035,0a1.12,1.12,0,0,1,.975,1.045v.161a1.11,1.11,0,0,1-.992,1.076M9.012,26.475a3.447,3.447,0,0,1-3.388-3.417v-4.74A3.538,3.538,0,0,1,9.1,14.9h4.334a1.163,1.163,0,0,1,1.056,1.05v.055a.4.4,0,0,1,0,.109,1.142,1.142,0,0,1-1.071,1.079H9.1a1.2,1.2,0,0,0-1.185,1.124v4.74a1.127,1.127,0,0,0,1.1,1.123l4.278,0h.17a1.154,1.154,0,0,1,1.056,1.045l0,.163a1.157,1.157,0,0,1-1.071,1.077l-.058.006ZM34.746,0H6.625A6.635,6.635,0,0,0,0,6.627V34.745a6.636,6.636,0,0,0,6.625,6.628H34.746a6.633,6.633,0,0,0,6.624-6.628V6.627A6.632,6.632,0,0,0,34.746,0" fill="#fff" fill-rule="evenodd"/>
    <path id="Path_2626" data-name="Path 2626" d="M169.7,23.595v-.006h-3.4V18.773a.442.442,0,0,0,0-.063.492.492,0,0,0,0-.067v-.237h-.017a2.283,2.283,0,0,0-4.542.3,2.213,2.213,0,0,0,.024.314v4.565H155l9.689-15.934.038-.064a1.043,1.043,0,0,0-.461-1.442,3.29,3.29,0,0,0-3.811.175,4.3,4.3,0,0,0-.371.417h-.064l-.4.657c-.271.409-.466.759-.466.759l-9.54,15.552v.026l-.767,1.325a2,2,0,0,0,.767,2.863h12.149v5.772a1.6,1.6,0,0,0-.009.17,2.077,2.077,0,0,0,2.271,1.8,2.125,2.125,0,0,0,2.264-1.661L166.3,34V27.923h3.4v-.009a2.16,2.16,0,0,0,0-4.319" fill="#fff" fill-rule="evenodd"/>
    <path id="Path_2627" data-name="Path 2627" d="M64.758,30.3a1.727,1.727,0,0,0-2.387-.126,8.056,8.056,0,0,1-5.446,1.781,6.718,6.718,0,0,1-5.1-2.058,7.436,7.436,0,0,1-1.991-5.355,7.347,7.347,0,0,1,1.991-5.331,6.734,6.734,0,0,1,5.1-2.04,8.5,8.5,0,0,1,5.148,1.6,1.72,1.72,0,0,0,2.376-.333l.242-.309a1.724,1.724,0,0,0-.271-2.4,11.545,11.545,0,0,0-7.489-2.434h-.126a10.706,10.706,0,0,0-7.929,3.158,11.078,11.078,0,0,0-3.114,8.086,11.111,11.111,0,0,0,3.094,8.108,10.733,10.733,0,0,0,7.949,3.137,11.186,11.186,0,0,0,8.026-2.91,1.72,1.72,0,0,0,.07-2.425Z" fill="#fff" fill-rule="evenodd"/>
    <path id="Path_2628" data-name="Path 2628" d="M82.846,27.695a6.323,6.323,0,0,1-5.86,4.325c-2.223.18-5.136-.511-5.236-3.225-.1-2.822,3.129-3.106,5.289-3.106h4.719c.119,0,1.088-.061,1.088.05Zm4.071,5.174c-.009-2.849-.032-10.763-.032-11.831a7.66,7.66,0,0,0-2.711-6.1,10.125,10.125,0,0,0-6.709-1.725,13.1,13.1,0,0,0-3.952.7,17.251,17.251,0,0,0-1.935.8,5.642,5.642,0,0,0-1.7,1.1,1.859,1.859,0,0,0,.327,2.664c1.185.9,2.44-.239,3.542-.714,2.134-.917,4.95-1.346,7.078-.167a3.768,3.768,0,0,1,1.841,2.469,10.966,10.966,0,0,1,.126,2.116c-2.169,0-4.34-.02-6.511,0a9.671,9.671,0,0,0-6.589,2.148,6.379,6.379,0,0,0-1.577,6.487c1.509,5.18,8.166,5.95,12.43,3.946a8.84,8.84,0,0,0,1.193-.692,7.74,7.74,0,0,0,.659-.493c.118-.1.357-.415.494-.447a2.7,2.7,0,0,0,.5,2.041,2.489,2.489,0,0,0,2.393.4c1.232-.45,1.133-1.658,1.13-2.705" fill="#fff" fill-rule="evenodd"/>
    <path id="Path_2629" data-name="Path 2629" d="M102.673,13.646c-.143-.123-.078-.07,0,0-1.024-.887-2.816-.254-3.884.243a7.417,7.417,0,0,0-3.458,2.976V15.044a1.754,1.754,0,0,0-1.74-1.8c-.852,0-1.69.044-2.16.893a4.339,4.339,0,0,0-.215,2.067V33.966a1.753,1.753,0,0,0,1.725,1.81c.939.038,1.917-.123,2.284-1.138a3.784,3.784,0,0,0,.106-1.308V25.422a12.212,12.212,0,0,1,.227-3.021,6.818,6.818,0,0,1,5.031-4.871c1.063-.256,2.326-.207,2.709-1.52a2.188,2.188,0,0,0-.622-2.361c.1.081.2.176,0,0" fill="#fff" fill-rule="evenodd"/>
    <path id="Path_2630" data-name="Path 2630" d="M108.317,22.672a7.081,7.081,0,0,1,2.1-4.018,7.192,7.192,0,0,1,6.94-1.369,6.1,6.1,0,0,1,4.13,5.387Zm16.81-.023a14.4,14.4,0,0,0-.441-2.258,10.894,10.894,0,0,0-1.789-3.672.614.614,0,0,0-.04-.053v0c-.021-.023-.036-.043-.053-.064.017.021.032.041.047.061-2.837-3.659-8.42-4.239-12.43-2.454a10.277,10.277,0,0,0-4.914,4.716,12.951,12.951,0,0,0-1.138,7.334,10.516,10.516,0,0,0,9.053,9.415,12.545,12.545,0,0,0,7.252-1.156,10.549,10.549,0,0,0,1.43-.89,3.231,3.231,0,0,0,1.228-1.3,1.823,1.823,0,0,0-1.64-2.428c-.718,0-1.176.519-1.742.888a7.723,7.723,0,0,1-1.929.9,8.974,8.974,0,0,1-4.36.222,6.9,6.9,0,0,1-5.338-5.682h13.885c1.1,0,2.484.193,2.942-1.156a5.927,5.927,0,0,0-.023-2.416" fill="#fff" fill-rule="evenodd"/>
    <path id="Path_2631" data-name="Path 2631" d="M145.415,35.781c-.164,0-.329,0-.49-.009h-.064c-.144,0-.283-.005-.418-.005H129.21a2.185,2.185,0,0,1-2.07-1.337,5.542,5.542,0,0,1,.628-3.96c1.272-2.545,3.928-4.185,6.268-5.632l.814-.5a35.406,35.406,0,0,0,5.6-3.947c1.03-.951,4.255-4.316,2.536-7.8-1.021-2.072-3.458-2.813-5.4-2.813a7.1,7.1,0,0,0-2.629.481,5.265,5.265,0,0,0-2.665,2.566c-.613,1.156-1.237,1.628-2.159,1.628a2.158,2.158,0,0,1-1.658-.774,1.894,1.894,0,0,1-.444-1.543,7.264,7.264,0,0,1,1.822-3.307A10.417,10.417,0,0,1,137.62,5.8a11.658,11.658,0,0,1,7.418,2.46,8.3,8.3,0,0,1,2.886,6.409,11.228,11.228,0,0,1-3.078,7.246,28.008,28.008,0,0,1-6.044,4.926c-.8.514-1.608,1.01-2.416,1.5q-.347.21-.709.421a10.47,10.47,0,0,0-2.972,2.246l-.583.718h13.719a2.031,2.031,0,0,1,2.04,1.649,1.918,1.918,0,0,1-1.174,2.212,3.407,3.407,0,0,1-1.292.19" fill="#fff" fill-rule="evenodd"/>
    <path id="Path_2632" data-name="Path 2632" d="M8.311,58.766l-1.859-6.8L4.6,58.766H3.461l-2.4-8.426H2.221l1.87,7.022L6.023,50.34H6.9l1.932,7.022,1.856-7.022h1.164l-2.4,8.426Z" fill="#fff" fill-rule="evenodd"/>
    <path id="Path_2633" data-name="Path 2633" d="M17.082,55.708a2.122,2.122,0,0,0-2.022-2.35,2.382,2.382,0,0,0,0,4.714,2.127,2.127,0,0,0,2.022-2.364m-5.04,0a3.025,3.025,0,1,1,3.018,3.21,2.992,2.992,0,0,1-3.018-3.21" fill="#fff" fill-rule="evenodd"/>
    <path id="Path_2634" data-name="Path 2634" d="M19.381,58.766v-6.1h.948v.986a2.588,2.588,0,0,1,2.031-1.112v.972a1.718,1.718,0,0,0-.379-.038,2.235,2.235,0,0,0-1.652.972v4.322Z" fill="#fff" fill-rule="evenodd"/>
    <rect id="Rectangle_47" data-name="Rectangle 47" width="0.946" height="8.425" transform="translate(23.309 50.341)" fill="#fff"/>
    <path id="Path_2635" data-name="Path 2635" d="M30.354,57.111V54.345a2.292,2.292,0,0,0-1.833-.987c-1.223,0-1.955,1.01-1.955,2.361s.732,2.352,1.955,2.352a2.277,2.277,0,0,0,1.833-.96m0,1.655v-.911A2.568,2.568,0,0,1,28.3,58.918c-1.594,0-2.717-1.214-2.717-3.2,0-1.944,1.112-3.207,2.717-3.207a2.553,2.553,0,0,1,2.057,1.074V50.34H31.3v8.426Z" fill="#fff" fill-rule="evenodd"/>
    <path id="Path_2636" data-name="Path 2636" d="M36.153,54.558A4.214,4.214,0,0,1,40.487,50.2a3.777,3.777,0,0,1,3.195,1.666l-.884.494a2.849,2.849,0,0,0-2.311-1.226,3.428,3.428,0,0,0,0,6.846A2.813,2.813,0,0,0,42.8,56.755l.9.493a3.811,3.811,0,0,1-3.207,1.67,4.214,4.214,0,0,1-4.334-4.36" fill="#fff" fill-rule="evenodd"/>
    <rect id="Rectangle_48" data-name="Rectangle 48" width="0.949" height="8.425" transform="translate(44.724 50.341)" fill="#fff"/>
    <path id="Path_2637" data-name="Path 2637" d="M51.115,57.476v-1.15a2.039,2.039,0,0,0-1.681-.756,1.342,1.342,0,1,0,0,2.665,2.042,2.042,0,0,0,1.681-.759m0,1.29v-.695a2.641,2.641,0,0,1-2.022.847A2.031,2.031,0,0,1,46.96,56.9a2,2,0,0,1,2.133-2.008,2.56,2.56,0,0,1,2.022.832v-1.1c0-.82-.657-1.29-1.541-1.29a2.427,2.427,0,0,0-1.87.846l-.441-.657A3.2,3.2,0,0,1,49.7,52.512c1.289,0,2.364.581,2.364,2.06v4.194Z" fill="#fff" fill-rule="evenodd"/>
    <path id="Path_2638" data-name="Path 2638" d="M53.184,57.958l.493-.683a2.774,2.774,0,0,0,2.011.873c.933,0,1.438-.444,1.438-1.051,0-1.477-3.776-.566-3.776-2.828,0-.948.82-1.757,2.273-1.757a3.088,3.088,0,0,1,2.262.884l-.443.657a2.38,2.38,0,0,0-1.819-.77c-.834,0-1.35.417-1.35.96,0,1.339,3.776.455,3.776,2.83,0,1.022-.82,1.845-2.4,1.845a3.253,3.253,0,0,1-2.463-.96" fill="#fff" fill-rule="evenodd"/>
    <path id="Path_2639" data-name="Path 2639" d="M58.84,57.958l.493-.683a2.772,2.772,0,0,0,2.008.873c.937,0,1.441-.444,1.441-1.051,0-1.477-3.775-.566-3.775-2.828,0-.948.819-1.757,2.273-1.757a3.075,3.075,0,0,1,2.258.884l-.44.657a2.383,2.383,0,0,0-1.818-.77c-.835,0-1.351.417-1.351.96,0,1.339,3.776.455,3.776,2.83,0,1.022-.823,1.845-2.4,1.845a3.244,3.244,0,0,1-2.463-.96" fill="#fff" fill-rule="evenodd"/>
    <path id="Path_2640" data-name="Path 2640" d="M68.2,54.558A4.213,4.213,0,0,1,72.532,50.2a3.781,3.781,0,0,1,3.2,1.666l-.885.494a2.85,2.85,0,0,0-2.314-1.226,3.428,3.428,0,0,0,0,6.846,2.814,2.814,0,0,0,2.314-1.226l.9.493a3.816,3.816,0,0,1-3.21,1.67,4.214,4.214,0,0,1-4.331-4.36" fill="#fff" fill-rule="evenodd"/>
    <path id="Path_2641" data-name="Path 2641" d="M80.776,57.476v-1.15A2.043,2.043,0,0,0,79.1,55.57a1.342,1.342,0,1,0,0,2.665,2.046,2.046,0,0,0,1.681-.759m0,1.29v-.695a2.64,2.64,0,0,1-2.022.847A2.031,2.031,0,0,1,76.621,56.9a2,2,0,0,1,2.133-2.008,2.558,2.558,0,0,1,2.022.832v-1.1c0-.82-.657-1.29-1.541-1.29a2.428,2.428,0,0,0-1.87.846l-.441-.657a3.2,3.2,0,0,1,2.437-1.009c1.289,0,2.364.581,2.364,2.06v4.194Z" fill="#fff" fill-rule="evenodd"/>
    <path id="Path_2642" data-name="Path 2642" d="M83.357,58.766v-6.1h.948v.986a2.592,2.592,0,0,1,2.034-1.112v.972a1.745,1.745,0,0,0-.379-.038,2.235,2.235,0,0,0-1.655.972v4.322Z" fill="#fff" fill-rule="evenodd"/>
    <path id="Path_2643" data-name="Path 2643" d="M89.785,53.3a2.033,2.033,0,0,0-1.993,2.031h4A1.98,1.98,0,0,0,89.785,53.3m-2.991,2.411A3.049,3.049,0,0,1,89.8,52.513a2.963,2.963,0,0,1,2.93,3.271v.239H87.792a2.15,2.15,0,0,0,2.2,2.11,2.67,2.67,0,0,0,1.883-.77l.452.618a3.308,3.308,0,0,1-2.425.937,3.023,3.023,0,0,1-3.105-3.21" fill="#fff" fill-rule="evenodd"/>
    <path id="Path_2644" data-name="Path 2644" d="M97.215,54.558a4.213,4.213,0,0,1,4.331-4.357,3.772,3.772,0,0,1,3.2,1.666l-.885.494a2.84,2.84,0,0,0-2.311-1.226,3.428,3.428,0,0,0,0,6.846,2.8,2.8,0,0,0,2.311-1.226l.9.493a3.816,3.816,0,0,1-3.21,1.67,4.214,4.214,0,0,1-4.331-4.36" fill="#fff" fill-rule="evenodd"/>
    <path id="Path_2645" data-name="Path 2645" d="M110.544,55.708a2.052,2.052,0,1,0-2.022,2.364,2.122,2.122,0,0,0,2.022-2.364m-5.04,0a3.025,3.025,0,1,1,3.018,3.21,2.993,2.993,0,0,1-3.018-3.21" fill="#fff" fill-rule="evenodd"/>
    <path id="Path_2646" data-name="Path 2646" d="M120.206,58.766V54.622c0-.77-.341-1.264-1.124-1.264a2.133,2.133,0,0,0-1.616.937v4.471h-.949V54.622c0-.77-.327-1.264-1.124-1.264a2.126,2.126,0,0,0-1.6.949v4.459h-.948v-6.1h.948v.884a2.631,2.631,0,0,1,1.971-1.036A1.567,1.567,0,0,1,117.4,53.65a2.561,2.561,0,0,1,2.046-1.138c1.109,0,1.7.619,1.7,1.844v4.41Z" fill="#fff" fill-rule="evenodd"/>
    <path id="Path_2647" data-name="Path 2647" d="M125.442,53.3a2.035,2.035,0,0,0-2,2.031h4a1.976,1.976,0,0,0-2.008-2.031m-2.994,2.411a3.051,3.051,0,0,1,3.009-3.195,2.965,2.965,0,0,1,2.93,3.271v.239h-4.941a2.15,2.15,0,0,0,2.2,2.11,2.658,2.658,0,0,0,1.88-.77l.455.618a3.308,3.308,0,0,1-2.425.937,3.026,3.026,0,0,1-3.108-3.21" fill="#fff" fill-rule="evenodd"/>
    <path id="Path_2648" data-name="Path 2648" d="M129.116,57.958l.49-.683a2.772,2.772,0,0,0,2.008.873c.936,0,1.441-.444,1.441-1.051,0-1.477-3.776-.566-3.776-2.828,0-.948.82-1.757,2.273-1.757a3.088,3.088,0,0,1,2.262.884l-.443.657a2.385,2.385,0,0,0-1.819-.77c-.834,0-1.35.417-1.35.96,0,1.339,3.775.455,3.775,2.83,0,1.022-.822,1.845-2.4,1.845a3.233,3.233,0,0,1-2.46-.96" fill="#fff" fill-rule="evenodd"/>
    <path id="Path_2649" data-name="Path 2649" d="M144.79,58.766V54.9h-4.926v3.867h-1.048V50.34h1.048v3.625h4.926V50.34h1.047v8.426Z" fill="#fff" fill-rule="evenodd"/>
    <path id="Path_2650" data-name="Path 2650" d="M152.294,55.708a2.051,2.051,0,1,0-2.02,2.364,2.122,2.122,0,0,0,2.02-2.364m-5.04,0a3.025,3.025,0,1,1,3.02,3.21,2.993,2.993,0,0,1-3.02-3.21" fill="#fff" fill-rule="evenodd"/>
    <path id="Path_2651" data-name="Path 2651" d="M161.959,58.766V54.622c0-.77-.341-1.264-1.123-1.264a2.13,2.13,0,0,0-1.617.937v4.471h-.948V54.622c0-.77-.33-1.264-1.124-1.264a2.135,2.135,0,0,0-1.6.949v4.459h-.949v-6.1h.949v.884a2.64,2.64,0,0,1,1.97-1.036,1.566,1.566,0,0,1,1.643,1.138,2.565,2.565,0,0,1,2.046-1.138c1.111,0,1.7.619,1.7,1.844v4.41Z" fill="#fff" fill-rule="evenodd"/>
    <path id="Path_2652" data-name="Path 2652" d="M167.194,53.3a2.034,2.034,0,0,0-2,2.031H169.2a1.977,1.977,0,0,0-2.009-2.031M164.2,55.708a3.051,3.051,0,0,1,3.006-3.195,2.963,2.963,0,0,1,2.93,3.271v.239H165.2a2.151,2.151,0,0,0,2.2,2.11,2.668,2.668,0,0,0,1.882-.77l.456.618a3.315,3.315,0,0,1-2.425.937,3.027,3.027,0,0,1-3.109-3.21" fill="#fff" fill-rule="evenodd"/>
  </g>
</svg>
